<?xml version="1.0" encoding="utf-8"?>
<!-- Generator: Adobe Illustrator 21.0.0, SVG Export Plug-In . SVG Version: 6.00 Build 0)  -->
<svg version="1.1" id="Layer_1" xmlns="http://www.w3.org/2000/svg" xmlns:xlink="http://www.w3.org/1999/xlink" x="0px" y="0px"
	 viewBox="0 0 61.4 61.4" style="enable-background:new 0 0 61.4 61.4;" xml:space="preserve">
<style type="text/css">
	.st0{fill:#01A7CA;}
</style>
<g>
	<path class="st0" d="M29.9,52.8c0.2,0.3,0.5,0.5,0.9,0.5s0.7-0.2,0.9-0.5l13.3-20.4c0.2-0.2,4.3-6,4.3-13.9C49.2,8.3,40.9,0,30.7,0
		C20.6,0,12.3,8.3,12.3,18.4c0,6.9,4.1,13.6,4.3,13.9L29.9,52.8z M30.7,2c9,0,16.4,7.4,16.4,16.4c0,7.2-3.9,12.7-3.9,12.8L30.7,50.3
		L18.3,31.2c0-0.1-3.9-6.4-3.9-12.8C14.3,9.4,21.7,2,30.7,2z M60.4,48.1c0.6,0,1-0.5,1-1V44c0-4-3.2-7.2-7.2-7.2c-0.6,0-1,0.5-1,1
		v9.9l-5.6,7.5h-6.3l-2-6.1h10.9c0.6,0,1-0.5,1-1s-0.5-1-1-1H37.9c-0.3,0-0.6,0.2-0.8,0.4c-0.2,0.3-0.2,0.6-0.1,0.9l2.3,6.8H17
		l3.1-6.1h3.5c0.6,0,1-0.5,1-1s-0.5-1-1-1H11.3c-0.6,0-1,0.5-1,1s0.5,1,1,1h6.5L14.9,55l-9.4-3.7c-0.5-0.2-1.1,0-1.3,0.6
		c-0.2,0.5,0,1.1,0.6,1.3l9.2,3.7l-1.3,2.5H7.2c-2.8,0-5.1-2.3-5.1-5.1c0-2.8,2.3-5.1,5.1-5.1c0.3,0,0.5-0.1,0.7-0.3
		c0.2-0.2,0.3-0.5,0.3-0.7l0-10.2c0-0.6-0.5-1-1-1c-4,0-7.2,3.2-7.2,7.2v3.1c0,0.6,0.5,1,1,1c0.6,0,1-0.5,1-1V44
		c0-2.5,1.8-4.5,4.1-5l0,8.2C2.7,47.7,0,50.7,0,54.3c0,4,3.2,7.2,7.2,7.2h47.1c4,0,7.2-3.2,7.2-7.2c0-3.6-2.7-6.6-6.1-7.1V39
		c2.3,0.5,4.1,2.5,4.1,5v3.1C59.4,47.7,59.8,48.1,60.4,48.1z M15,59.4l1-2h23.9l0.7,2H15z M59.4,54.3c0,2.8-2.3,5.1-5.1,5.1H42.7
		l-0.7-2h14.3c0.6,0,1-0.5,1-1c0-0.6-0.5-1-1-1h-6.1l4.6-6.1C57.3,49.4,59.4,51.6,59.4,54.3z M30.7,26.6c4.5,0,8.2-3.7,8.2-8.2
		c0-4.5-3.7-8.2-8.2-8.2s-8.2,3.7-8.2,8.2C22.5,22.9,26.2,26.6,30.7,26.6z M30.7,12.3c3.4,0,6.1,2.8,6.1,6.1c0,3.4-2.8,6.1-6.1,6.1
		s-6.1-2.8-6.1-6.1C24.6,15,27.3,12.3,30.7,12.3z"/>
</g>
</svg>
