<?xml version="1.0" encoding="utf-8"?>
<!-- Generator: Adobe Illustrator 21.0.0, SVG Export Plug-In . SVG Version: 6.00 Build 0)  -->
<svg version="1.1" id="Calque_1" xmlns="http://www.w3.org/2000/svg" xmlns:xlink="http://www.w3.org/1999/xlink" x="0px" y="0px"
	 viewBox="0 0 19.9 27.7" style="enable-background:new 0 0 19.9 27.7;" xml:space="preserve">
<style type="text/css">
	.st0{fill:#FFFFFF;}
</style>
<path class="st0" d="M5.4,14C0.6,9.9,1.9,4.7,4.8,2.1c3.2-2.9,7.7-2.8,10.7,0.3c2.9,3,3.4,7.9-1,11.5c0.2,0.1,0.4,0.2,0.6,0.4
	c3.2,2.1,4.9,5,4.9,8.9c0,1,0,2,0,3c0,1-0.5,1.5-1.4,1.5c-0.8,0-1.3-0.6-1.3-1.5c0-1.4,0-2.9-0.1-4.3c-0.3-3.6-3.2-6.2-6.8-6.3
	c-3.9-0.1-6.8,2.1-7.4,5.8c-0.3,1.6-0.1,3.2-0.2,4.8c0,0.9-0.5,1.4-1.3,1.5c-0.8,0-1.4-0.5-1.4-1.2c0-2,0-4,0.3-5.9
	C0.8,18,2.4,16,4.6,14.5C4.9,14.3,5.2,14.2,5.4,14z M14.9,7.7c0-3-2-5-5-5c-2.9,0-5,2-5,5c0,3,2,4.9,5.1,4.9
	C12.9,12.7,14.9,10.6,14.9,7.7z"/>
</svg>
