<?xml version="1.0" encoding="utf-8"?>
<!-- Generator: Adobe Illustrator 21.0.0, SVG Export Plug-In . SVG Version: 6.00 Build 0)  -->
<svg version="1.1" id="Layer_1" xmlns="http://www.w3.org/2000/svg" xmlns:xlink="http://www.w3.org/1999/xlink" x="0px" y="0px"
	 viewBox="0 0 46.1 43" style="enable-background:new 0 0 46.1 43;" xml:space="preserve">
<style type="text/css">
	.st0{fill:#01A7CA;}
</style>
<g>
	<path class="st0" d="M20.7,13.8h0.8c0.4,0,0.8-0.3,0.8-0.8c0-0.4-0.3-0.8-0.8-0.8h-0.8c-0.4,0-0.8,0.3-0.8,0.8
		C20,13.5,20.3,13.8,20.7,13.8z M9.2,7.7H10c0.4,0,0.8-0.3,0.8-0.8S10.4,6.1,10,6.1H9.2c-0.4,0-0.8,0.3-0.8,0.8S8.8,7.7,9.2,7.7z
		 M16.9,15.2c0.1,1.5,0.8,2.8,0.8,2.8c0.7,1.4,1.7,3.5,5.3,3.5s4.6-2.1,5.3-3.5c0-0.1,0.7-1.4,0.8-2.8c0.5-0.3,0.8-0.8,0.8-1.3v-1.5
		c0-0.6-0.3-1.1-0.8-1.3v-0.2c0-2.5-2.1-4.6-4.6-4.6h-3.1c-2.5,0-4.6,2.1-4.6,4.6V11c-0.5,0.3-0.8,0.8-0.8,1.3v1.5
		C16.1,14.4,16.4,14.9,16.9,15.2z M17.7,12.3L17.7,12.3c0.4,0,0.8-0.3,0.8-0.8v-0.8c0-1.7,1.4-3.1,3.1-3.1h3.1
		c1.7,0,3.1,1.4,3.1,3.1v0.8c0,0.4,0.3,0.8,0.8,0.8v1.5c-0.4,0-0.8,0.3-0.8,0.8c0,1.3-0.7,2.7-0.7,2.7C26.2,18.9,25.4,20,23,20
		s-3.1-1-3.9-2.6c0,0-0.7-1.4-0.7-2.7c0-0.4-0.3-0.8-0.8-0.8V12.3z M10.7,17.6l-0.6,3.8c-0.1,0.4,0.2,0.8,0.6,0.9l0.1,0
		c0.4,0,0.7-0.3,0.8-0.6l0.5-3.2c1.1,0,2.1,0.1,3.1,0.3c0.4,0.1,0.8-0.2,0.9-0.6c0.1-0.4-0.2-0.8-0.6-0.9c-1.2-0.2-2.5-0.3-3.9-0.3
		C11.2,16.9,10.8,17.2,10.7,17.6z M35.3,7.7h0.8c0.4,0,0.8-0.3,0.8-0.8s-0.3-0.8-0.8-0.8h-0.8c-0.4,0-0.8,0.3-0.8,0.8
		S34.9,7.7,35.3,7.7z M24.6,13.8h0.8c0.4,0,0.8-0.3,0.8-0.8c0-0.4-0.3-0.8-0.8-0.8h-0.8c-0.4,0-0.8,0.3-0.8,0.8
		C23.8,13.5,24.1,13.8,24.6,13.8z M39.2,7.7h0.8c0.4,0,0.8-0.3,0.8-0.8s-0.3-0.8-0.8-0.8h-0.8c-0.4,0-0.8,0.3-0.8,0.8
		S38.7,7.7,39.2,7.7z M31.5,9c0.1,1.5,0.8,2.8,0.8,2.8c0.7,1.4,1.7,3.5,5.3,3.5c3.5,0,4.6-2.1,5.3-3.5c0-0.1,0.7-1.4,0.8-2.8
		c0.5-0.3,0.8-0.8,0.8-1.3V6.1c0-0.6-0.3-1.1-0.8-1.3V4.6c0-2.5-2.1-4.6-4.6-4.6h-3.1c-2.5,0-4.6,2.1-4.6,4.6v0.2
		c-0.5,0.3-0.8,0.8-0.8,1.3v1.5C30.7,8.3,31,8.8,31.5,9z M32.2,6.1L32.2,6.1c0.4,0,0.8-0.3,0.8-0.8V4.6c0-1.7,1.4-3.1,3.1-3.1h3.1
		c1.7,0,3.1,1.4,3.1,3.1v0.8c0,0.4,0.3,0.8,0.8,0.8v1.5c-0.4,0-0.8,0.3-0.8,0.8c0,1.3-0.7,2.7-0.7,2.7c-0.8,1.6-1.5,2.6-3.9,2.6
		c-2.4,0-3.1-1-3.9-2.6c0,0-0.7-1.4-0.7-2.7c0-0.4-0.3-0.8-0.8-0.8V6.1z M30.8,18.7c0.9-0.2,2-0.3,3.1-0.3l0.5,3.2
		c0.1,0.4,0.4,0.6,0.8,0.6l0.1,0c0.4-0.1,0.7-0.5,0.6-0.9l-0.6-3.8c-0.1-0.4-0.4-0.6-0.8-0.6c-1.4,0-2.8,0.1-3.9,0.3
		c-0.4,0.1-0.7,0.5-0.6,0.9C30,18.5,30.4,18.8,30.8,18.7z M3.8,16.9c-1.1,0-2.2,0.1-3.1,0.2C0.2,17.2,0,17.5,0,18
		c0.1,0.4,0.4,0.7,0.9,0.7c0.7-0.1,1.5-0.2,2.3-0.2l2.2,13.2c0.1,0.4,0.4,0.6,0.8,0.6l0.1,0c0.4-0.1,0.7-0.5,0.6-0.9L4.6,17.6
		C4.5,17.2,4.2,16.9,3.8,16.9z M26.9,23.1c-0.4,0-0.8,0.3-0.8,0.7l-2.3,16.9c-0.1,0.4,0.2,0.8,0.7,0.9l0.1,0c0.4,0,0.7-0.3,0.8-0.7
		l2.2-16.2c3.3,0.1,5.8,0.8,7,2c0.5,0.5,0.8,1.1,0.8,1.8v12.3c0,0.4,0.3,0.8,0.8,0.8s0.8-0.3,0.8-0.8V28.4c0-1.1-0.4-2.1-1.2-2.9
		C34,23.9,31,23.1,26.9,23.1z M24.6,24.6c0-0.8-0.7-1.5-1.5-1.5s-1.5,0.7-1.5,1.5c0,0.6,0.3,1.1,0.8,1.3v5.6c0,0.4,0.3,0.8,0.8,0.8
		c0.4,0,0.8-0.3,0.8-0.8v-5.6C24.3,25.6,24.6,25.1,24.6,24.6z M31.5,32.3c-0.4,0-0.8,0.3-0.8,0.8v9.2c0,0.4,0.3,0.8,0.8,0.8
		c0.4,0,0.8-0.3,0.8-0.8V33C32.2,32.6,31.9,32.3,31.5,32.3z M39.9,18.4c0-0.8-0.7-1.5-1.5-1.5s-1.5,0.7-1.5,1.5
		c0,0.6,0.3,1.1,0.8,1.3v5.6c0,0.4,0.3,0.8,0.8,0.8s0.8-0.3,0.8-0.8v-5.6C39.6,19.5,39.9,19,39.9,18.4z M45.4,17.1
		c-1-0.1-2-0.2-3.1-0.2c-0.4,0-0.7,0.3-0.8,0.6l-2.3,13.8c-0.1,0.4,0.2,0.8,0.6,0.9l0.1,0c0.4,0,0.7-0.3,0.8-0.6l2.2-13.2
		c0.8,0,1.6,0.1,2.3,0.2c0.4,0.1,0.8-0.2,0.9-0.7C46.1,17.5,45.8,17.2,45.4,17.1z M5.4,7.7h0.8c0.4,0,0.8-0.3,0.8-0.8
		S6.6,6.1,6.1,6.1H5.4c-0.4,0-0.8,0.3-0.8,0.8S4.9,7.7,5.4,7.7z M7.7,16.9c-0.8,0-1.5,0.7-1.5,1.5c0,0.6,0.3,1.1,0.8,1.3v5.6
		c0,0.4,0.3,0.8,0.8,0.8c0.4,0,0.8-0.3,0.8-0.8v-5.6c0.5-0.3,0.8-0.8,0.8-1.3C9.2,17.6,8.5,16.9,7.7,16.9z M1.6,9
		c0.1,1.5,0.8,2.8,0.8,2.8c0.7,1.4,1.7,3.5,5.3,3.5c3.5,0,4.6-2.1,5.3-3.5c0-0.1,0.7-1.4,0.8-2.8c0.5-0.3,0.8-0.8,0.8-1.3V6.1
		c0-0.6-0.3-1.1-0.8-1.3V4.6c0-2.5-2.1-4.6-4.6-4.6H6.1C3.6,0,1.5,2.1,1.5,4.6v0.2C1.1,5.1,0.8,5.6,0.8,6.1v1.5
		C0.8,8.3,1.1,8.8,1.6,9z M2.3,6.1c0.4,0,0.8-0.3,0.8-0.8V4.6c0-1.7,1.4-3.1,3.1-3.1h3.1c1.7,0,3.1,1.4,3.1,3.1v0.8
		c0,0.4,0.3,0.8,0.8,0.8v1.5c-0.4,0-0.8,0.3-0.8,0.8c0,1.3-0.7,2.7-0.7,2.7c-0.8,1.6-1.5,2.6-3.9,2.6c-2.4,0-3.1-1-3.9-2.6
		c0,0-0.7-1.4-0.7-2.7c0-0.4-0.3-0.8-0.8-0.8V6.1z M14.6,32.3c-0.4,0-0.8,0.3-0.8,0.8v9.2c0,0.4,0.3,0.8,0.8,0.8
		c0.4,0,0.8-0.3,0.8-0.8V33C15.3,32.6,15,32.3,14.6,32.3z M19.2,23.1c-4,0-7.2,0.9-8.7,2.4c-0.8,0.8-1.2,1.8-1.2,2.9v12.3
		c0,0.4,0.3,0.8,0.8,0.8s0.8-0.3,0.8-0.8V28.4c0-0.7,0.3-1.3,0.8-1.8c1.2-1.2,3.7-1.9,7-2l2.2,16.2c0.1,0.4,0.4,0.7,0.8,0.7l0.1,0
		c0.4-0.1,0.7-0.4,0.7-0.9l-2.3-16.9C19.9,23.3,19.6,23.1,19.2,23.1z"/>
</g>
</svg>
