<?xml version="1.0" encoding="utf-8"?>
<!-- Generator: Adobe Illustrator 21.0.0, SVG Export Plug-In . SVG Version: 6.00 Build 0)  -->
<svg version="1.1" id="Layer_1" xmlns="http://www.w3.org/2000/svg" xmlns:xlink="http://www.w3.org/1999/xlink" x="0px" y="0px"
	 viewBox="0 0 61.4 61.4" style="enable-background:new 0 0 61.4 61.4;" xml:space="preserve">
<style type="text/css">
	.st0{fill:#01A7CA;}
</style>
<g>
	<path class="st0" d="M19.5,24.6h6.1c0.6,0,1-0.5,1-1c0-0.6-0.5-1-1-1h-6.1c-0.6,0-1,0.5-1,1C18.4,24.1,18.9,24.6,19.5,24.6z
		 M19.5,16.4h12.3c0.6,0,1-0.5,1-1c0-0.6-0.5-1-1-1H19.5c-0.6,0-1,0.5-1,1C18.4,15.9,18.9,16.4,19.5,16.4z M42,28.7h-4.1
		c-0.6,0-1,0.5-1,1c0,0.6,0.5,1,1,1H42c0.6,0,1-0.5,1-1C43,29.1,42.5,28.7,42,28.7z M34.8,29.7c0-0.6-0.5-1-1-1H19.5
		c-0.6,0-1,0.5-1,1c0,0.6,0.5,1,1,1h14.3C34.4,30.7,34.8,30.3,34.8,29.7z M28.7,23.6c0,0.6,0.5,1,1,1H42c0.6,0,1-0.5,1-1
		c0-0.6-0.5-1-1-1H29.7C29.1,22.5,28.7,23,28.7,23.6z M57.9,16.6l-1-0.7c-0.5-0.3-1.1-0.2-1.4,0.3c-0.3,0.5-0.2,1.1,0.3,1.4l1.1,0.7
		c1.6,1,2.6,2.9,2.6,5.3v32.8c0,1.7-1.3,3.1-3.1,3.1H5.1C3.4,59.4,2,58,2,56.3V23.6c0-1.9,0.8-4.2,2.6-5.3l1-0.7
		c0.5-0.3,0.6-1,0.3-1.4c-0.3-0.5-1-0.6-1.4-0.3l-1,0.7c-2.2,1.3-3.6,4-3.6,7v32.8c0,2.9,2.2,5.1,5.1,5.1h51.2
		c2.9,0,5.1-2.2,5.1-5.1V23.6C61.4,20.5,60.1,17.9,57.9,16.6z M18.8,42.2L4.5,53.5c-0.4,0.4-0.5,1-0.2,1.4c0.2,0.3,0.5,0.4,0.8,0.4
		c0.2,0,0.4-0.1,0.6-0.2L20,43.8c0.4-0.4,0.5-1,0.2-1.4C19.9,41.9,19.2,41.9,18.8,42.2z M41.2,42.4c-0.3,0.4-0.3,1.1,0.2,1.4
		l14.3,11.3c0.2,0.1,0.4,0.2,0.6,0.2c0.3,0,0.6-0.1,0.8-0.4c0.4-0.4,0.3-1.1-0.2-1.4L42.6,42.2C42.2,41.9,41.5,41.9,41.2,42.4z
		 M36.9,35.8c0-0.6-0.5-1-1-1H25.6c-0.6,0-1,0.5-1,1s0.5,1,1,1h10.2C36.4,36.9,36.9,36.4,36.9,35.8z M4.3,25C4,25.4,4,26.1,4.5,26.4
		l22.4,17.1c0.2,0.2,1.9,1.6,3.7,1.6c1.8,0,3.6-1.4,3.7-1.5l22.5-17.2c0.5-0.3,0.5-1,0.2-1.4c-0.3-0.4-1-0.5-1.4-0.2l-2.5,1.9V5.1
		c0-2.8-2.3-5.1-5.1-5.1H13.3c-2.8,0-5.1,2.3-5.1,5.1v21.5l-2.5-1.9C5.3,24.4,4.6,24.5,4.3,25z M10.2,5.1c0-1.6,1.4-3.1,3.1-3.1
		h34.8c1.6,0,3.1,1.4,3.1,3.1v23.1L33.1,42c-0.4,0.3-1.5,1.1-2.5,1.1c-0.9,0-2.1-0.8-2.5-1.1l-18-13.7V5.1z"/>
</g>
</svg>
