<?xml version="1.0" encoding="utf-8"?>
<!-- Generator: Adobe Illustrator 21.0.0, SVG Export Plug-In . SVG Version: 6.00 Build 0)  -->
<svg version="1.1" id="Layer_1" xmlns="http://www.w3.org/2000/svg" xmlns:xlink="http://www.w3.org/1999/xlink" x="0px" y="0px"
	 viewBox="0 0 46.1 46.1" style="enable-background:new 0 0 46.1 46.1;" xml:space="preserve">
<style type="text/css">
	.st0{fill:#01A7CA;}
</style>
<g>
	<path class="st0" d="M0.8,20h1.5c0.4,0,0.8-0.3,0.8-0.8s-0.3-0.8-0.8-0.8H0.8c-0.4,0-0.8,0.3-0.8,0.8S0.3,20,0.8,20z M39.8,7.8
		c-3.9-3.9-9-6.1-14.4-6.3V0.8C25.3,0.3,25,0,24.6,0c-0.4,0-0.8,0.3-0.8,0.8v0.8C18.3,1.7,13.2,4,9.4,7.8c-2.3,2.3-4,5-5.1,8
		c-0.1,0.4,0.1,0.8,0.5,1c0.4,0.1,0.8-0.1,1-0.5c1-2.8,2.6-5.3,4.7-7.5c3.8-3.8,8.8-5.8,14.1-5.8c5.3,0,10.3,2.1,14.1,5.8
		c7.8,7.8,7.8,20.5,0,28.2c-1.1,1.1-2.3,2-3.5,2.8L35,40c-0.1,0.1-0.2,0.1-0.3,0.2c-3,1.8-6.5,2.8-10.1,2.8c-3.6,0-7.1-1-10.1-2.8
		c-0.1-0.1-0.2-0.2-0.3-0.2L14,40c-1.3-0.8-2.4-1.7-3.5-2.8c-2.1-2.1-3.7-4.6-4.7-7.5c-0.1-0.4-0.6-0.6-1-0.5
		c-0.4,0.1-0.6,0.6-0.5,1c1.1,3,2.8,5.7,5.1,8c1.1,1.1,2.2,2,3.4,2.8l-2,3.9c-0.2,0.4,0,0.8,0.3,1c0.1,0.1,0.2,0.1,0.3,0.1
		c0.3,0,0.6-0.2,0.7-0.4l1.9-3.8c3.2,1.8,6.7,2.7,10.5,2.7s7.3-0.9,10.5-2.7l1.9,3.8c0.1,0.3,0.4,0.4,0.7,0.4c0.1,0,0.2,0,0.3-0.1
		c0.4-0.2,0.5-0.7,0.3-1l-2-3.9c1.2-0.8,2.4-1.7,3.4-2.8C48.2,29.9,48.2,16.2,39.8,7.8z M1.5,23c0,0.4,0.3,0.8,0.8,0.8h4l-1.6,2.7
		c-0.1,0.2-0.1,0.5,0,0.8c0.1,0.2,0.4,0.4,0.7,0.4h6.9c0.2,0,0.5-0.1,0.6-0.3l2.8-3.6h1.8l0.1,0h0l0.1,0h6.8c0.4,0,0.8-0.3,0.8-0.8
		s-0.3-0.8-0.8-0.8h-1.3c0.1-0.1,0.1-0.2,0.2-0.3c0.3-0.3,0.7-0.5,1.1-0.5c0.4,0,0.8,0.2,1.1,0.5c0.3,0.3,0.5,0.7,0.5,1.1
		c0,0.4-0.2,0.8-0.4,1.1c-0.3,0.3-0.7,0.5-1.1,0.5c-0.4,0-0.8,0.3-0.8,0.8c0,0.4,0.3,0.8,0.8,0.8c0.8,0,1.6-0.3,2.2-0.9
		c1.2-1.2,1.2-3.1,0-4.3c-0.6-0.6-1.4-0.9-2.2-0.9c-0.8,0-1.6,0.3-2.2,0.9c-0.4,0.4-0.7,0.9-0.8,1.4h-3.1c0.2-1.3,0.8-2.6,1.7-3.6
		c2.4-2.4,6.3-2.4,8.7,0c2.4,2.4,2.4,6.3,0,8.7c-2.4,2.4-6.3,2.4-8.7,0c-0.5-0.5-0.9-1.1-1.2-1.7c-0.2-0.4-0.6-0.5-1-0.4
		c-0.4,0.2-0.5,0.6-0.4,1c0.4,0.8,0.9,1.5,1.5,2.1c1.5,1.5,3.5,2.2,5.4,2.2s3.9-0.7,5.4-2.2c3-3,3-7.9,0-10.9c-3-3-7.9-3-10.9,0
		c-1.3,1.3-2,2.9-2.2,4.7h-1.2l-1.6-1.9c0.5-1.8,1.4-3.5,2.8-4.9c2-2,4.7-3.1,7.6-3.1c2.9,0,5.6,1.1,7.6,3.1c4.2,4.2,4.2,11,0,15.2
		c-2,2-4.7,3.1-7.6,3.1c-2.9,0-5.6-1.1-7.6-3.1c-0.7-0.7-1.3-1.5-1.8-2.3c-0.2-0.4-0.7-0.5-1-0.3c-0.4,0.2-0.5,0.7-0.3,1
		c0.5,1,1.2,1.9,2,2.7c2.3,2.3,5.4,3.6,8.7,3.6c3.3,0,6.4-1.3,8.7-3.6c4.8-4.8,4.8-12.6,0-17.4c-2.3-2.3-5.4-3.6-8.7-3.6
		s-6.4,1.3-8.7,3.6c-1.3,1.3-2.3,2.8-2.9,4.5l-0.1-0.2c-0.1-0.2-0.4-0.3-0.6-0.3H9.9c0.7-2.4,2-4.5,3.8-6.3
		c2.9-2.9,6.8-4.5,10.9-4.5s8,1.6,10.9,4.5c6,6,6,15.7,0,21.7c-2.9,2.9-6.8,4.5-10.9,4.5c-4.1,0-8-1.6-10.9-4.5
		c-1.3-1.3-2.3-2.7-3-4.3c-0.2-0.4-0.6-0.5-1-0.4c-0.4,0.2-0.5,0.6-0.4,1c0.8,1.8,2,3.3,3.3,4.7c3.2,3.2,7.4,4.9,11.9,4.9
		s8.8-1.8,11.9-4.9c6.6-6.6,6.6-17.3,0-23.9c-3.2-3.2-7.4-4.9-11.9-4.9s-8.8,1.8-11.9,4.9c-2,2-3.5,4.6-4.3,7.3h-3
		c-0.3,0-0.5,0.1-0.7,0.4c-0.1,0.2-0.1,0.5,0,0.8l1.6,2.7h-4C1.9,22.3,1.5,22.6,1.5,23z M11.5,22.3H8.1L6.7,20h5.2l2.5,3.1l-2.5,3.1
		H6.7l1.4-2.3h3.4c0.4,0,0.8-0.3,0.8-0.8S11.9,22.3,11.5,22.3z M2.3,26.1H0.8c-0.4,0-0.8,0.3-0.8,0.8s0.3,0.8,0.8,0.8h1.5
		c0.4,0,0.8-0.3,0.8-0.8S2.7,26.1,2.3,26.1z"/>
</g>
</svg>
