<?xml version="1.0" encoding="utf-8"?>
<!-- Generator: Adobe Illustrator 21.0.0, SVG Export Plug-In . SVG Version: 6.00 Build 0)  -->
<svg version="1.1" id="Calque_1" xmlns="http://www.w3.org/2000/svg" xmlns:xlink="http://www.w3.org/1999/xlink" x="0px" y="0px"
	 viewBox="0 0 26.4 23.9" style="enable-background:new 0 0 26.4 23.9;" xml:space="preserve">
<style type="text/css">
	.st0{fill:#FFFFFF;}
</style>
<g>
	<path class="st0" d="M23.2,7c-0.8,0-1.7,0-2.5,0c-0.2,0-0.4-0.1-0.5-0.3c-0.6-1.5-1.3-3.1-1.9-4.6C17.8,0.8,16.6,0,15.2,0
		c-1.3,0-2.6,0-4,0C9.8,0,8.7,0.7,8.1,2.1C7.4,3.6,6.8,5.2,6.2,6.7C6.1,7,6,7,5.7,7C4.8,7,4,7,3.1,7.1c-2,0.1-3.4,1.9-3,3.9
		c0.7,3.4,1.5,6.9,2.2,10.3c0.3,1.5,1.7,2.7,3.2,2.7c2.6,0,5.1,0,7.7,0v0c2.6,0,5.1,0,7.7,0c1.6,0,2.9-1,3.2-2.6
		c0.7-3.5,1.5-7,2.2-10.4C26.7,8.9,25.2,7,23.2,7z M7.7,6.7c0.6-1.3,1.1-2.7,1.7-4c0.4-0.8,1-1.2,1.9-1.2c1.3,0,2.6,0,4,0
		c0.8,0,1.3,0.3,1.6,1c0.6,1.4,1.2,2.9,1.9,4.4l0,0.1H7.6C7.6,6.9,7.7,6.8,7.7,6.7z M24.9,10.6c-0.6,2.8-1.2,5.6-1.8,8.4
		c-0.1,0.7-0.3,1.4-0.4,2.1c-0.2,0.9-0.9,1.5-1.8,1.5c-5.2,0-10.4,0-15.6,0c-0.9,0-1.6-0.6-1.8-1.5c-0.7-3.5-1.5-7-2.2-10.5
		C1.2,9.4,2.1,8.4,3.2,8.4c3.3,0,6.6,0,9.9,0c3.3,0,6.7,0,10,0C24.3,8.4,25.2,9.4,24.9,10.6z M9,11.2c-0.4,0-0.7,0.3-0.7,0.8
		c0,2.1,0,4.1,0,6.2C8.2,18.7,8.5,19,9,19c0.4,0,0.7-0.3,0.7-0.8c0-1,0-2,0-3c0-1,0-2.1,0-3.1C9.7,11.5,9.4,11.2,9,11.2z M18.1,12
		c0-0.4-0.3-0.8-0.7-0.8c-0.4,0-0.7,0.3-0.7,0.8c0,2.1,0,4.2,0,6.3c0,0.2,0.1,0.3,0.2,0.5c0.2,0.3,0.5,0.4,0.8,0.2
		c0.3-0.1,0.5-0.4,0.5-0.7c0-1,0-2.1,0-3.1h0C18.1,14.1,18.2,13,18.1,12z M13.9,12c0-0.4-0.3-0.7-0.7-0.7c-0.4,0-0.7,0.3-0.7,0.7
		c0,2.1,0,4.2,0,6.4c0,0.2,0.1,0.4,0.2,0.5c0.2,0.2,0.5,0.3,0.8,0.2c0.3-0.1,0.5-0.4,0.5-0.7c0-1.1,0-2.1,0-3.2
		C13.9,14.1,13.9,13,13.9,12z"/>
</g>
</svg>
