<?xml version="1.0" encoding="utf-8"?>
<!-- Generator: Adobe Illustrator 21.0.0, SVG Export Plug-In . SVG Version: 6.00 Build 0)  -->
<svg version="1.1" id="Layer_1" xmlns="http://www.w3.org/2000/svg" xmlns:xlink="http://www.w3.org/1999/xlink" x="0px" y="0px"
	 viewBox="0 0 61.4 61.4" style="enable-background:new 0 0 61.4 61.4;" xml:space="preserve">
<style type="text/css">
	.st0{fill:#01A7CA;}
</style>
<g>
	<path class="st0" d="M30.7,50.2c0,0.6,0.5,1,1,1h4.1c0.6,0,1-0.5,1-1v-4.1c0-0.6-0.5-1-1-1h-4.1c-0.6,0-1,0.5-1,1V50.2z M32.8,47.1
		h2v2h-2V47.1z M52.2,45.1h-4.1c-0.6,0-1,0.5-1,1v4.1c0,0.6,0.5,1,1,1h4.1c0.6,0,1-0.5,1-1v-4.1C53.2,45.5,52.8,45.1,52.2,45.1z
		 M51.2,49.2h-2v-2h2V49.2z M56.3,2H27.6c-0.6,0-1,0.5-1,1c0,0.6,0.5,1,1,1h28.7c1.7,0,3.1,1.4,3.1,3.1v47.1c0,1.7-1.4,3.1-3.1,3.1
		H27.6c-0.6,0-1,0.5-1,1c0,0.6,0.5,1,1,1h28.7c2.8,0,5.1-2.3,5.1-5.1V7.2C61.4,4.3,59.1,2,56.3,2z M21.5,0H9.2
		C7.5,0,6.1,1.4,6.1,3.1v51.2c0,0.6,0.5,1,1,1c0.6,0,1-0.5,1-1V3.1c0-0.6,0.5-1,1-1h12.3c0.6,0,1,0.5,1,1v55.3c0,0.6-0.5,1-1,1H9.2
		c-0.6,0-1-0.5-1-1s-0.5-1-1-1h-2c-1.8,0-3.1-1.2-3.1-3.1V7.2c0-1.1,0.6-2.1,1.5-2.6C4.1,4.2,4.2,3.6,4,3.1C3.7,2.6,3,2.5,2.6,2.8
		C1,3.7,0,5.4,0,7.2v47.1c0,3,2.2,5.1,5.1,5.1h1.2c0.4,1.2,1.6,2,2.9,2h12.3c1.7,0,3.1-1.4,3.1-3.1V3.1C24.6,1.4,23.2,0,21.5,0z
		 M53.2,37.9c0-0.6-0.5-1-1-1h-4.1c-0.6,0-1,0.5-1,1V42c0,0.6,0.5,1,1,1h4.1c0.6,0,1-0.5,1-1V37.9z M51.2,41h-2v-2h2V41z M30.7,42
		c0,0.6,0.5,1,1,1h4.1c0.6,0,1-0.5,1-1v-4.1c0-0.6-0.5-1-1-1h-4.1c-0.6,0-1,0.5-1,1V42z M32.8,38.9h2v2h-2V38.9z M45.1,37.9
		L45.1,37.9c0-0.6-0.5-1-1-1h-4.1c-0.6,0-1,0.5-1,1V42c0,0.6,0.5,1,1,1H44c0.6,0,1-0.5,1-1V37.9z M43,41h-2v-2h2V41z M30.7,33.8
		c0,0.6,0.5,1,1,1h4.1c0.6,0,1-0.5,1-1v-4.1c0-0.6-0.5-1-1-1h-4.1c-0.6,0-1,0.5-1,1V33.8z M32.8,30.7h2v2h-2V30.7z M39.9,45.1
		c-0.6,0-1,0.5-1,1v4.1c0,0.6,0.5,1,1,1H44c0.6,0,1-0.5,1-1v-4.1c0-0.6-0.5-1-1-1H39.9z M43,49.2h-2v-2h2V49.2z M53.2,11.3
		c0-0.6-0.5-1-1-1H31.7c-0.6,0-1,0.5-1,1v12.3c0,0.6,0.5,1,1,1h20.5c0.6,0,1-0.5,1-1V11.3z M51.2,22.5H32.8V12.3h18.4V22.5z
		 M53.2,29.7c0-0.6-0.5-1-1-1h-4.1c-0.6,0-1,0.5-1,1v4.1c0,0.6,0.5,1,1,1h4.1c0.6,0,1-0.5,1-1V29.7z M51.2,32.8h-2v-2h2V32.8z
		 M44,28.7h-4.1c-0.6,0-1,0.5-1,1v4.1c0,0.6,0.5,1,1,1H44c0.6,0,1-0.5,1-1v-4.1C45.1,29.1,44.6,28.7,44,28.7z M43,32.8h-2v-2h2V32.8
		z"/>
</g>
</svg>
