<?xml version="1.0" encoding="utf-8"?>
<!-- Generator: Adobe Illustrator 21.0.0, SVG Export Plug-In . SVG Version: 6.00 Build 0)  -->
<svg version="1.1" id="Layer_1" xmlns="http://www.w3.org/2000/svg" xmlns:xlink="http://www.w3.org/1999/xlink" x="0px" y="0px"
	 viewBox="0 0 46.1 46.1" style="enable-background:new 0 0 46.1 46.1;" xml:space="preserve">
<style type="text/css">
	.st0{fill:#01A7CA;}
</style>
<g>
	<path class="st0" d="M25.3,30c0.4,0,0.8-0.3,0.8-0.8V18.4h2.3c2.1,0,3.8-1.7,3.8-3.8c0-2.1-1.7-3.8-3.8-3.8c-2.1,0-3.8,1.7-3.8,3.8
		v2.3h-3.1v-2.3c0-2.1-1.7-3.8-3.8-3.8c-2.1,0-3.8,1.7-3.8,3.8s1.7,3.8,3.8,3.8H20v10.8c0,0.4,0.3,0.8,0.8,0.8s0.8-0.3,0.8-0.8V18.4
		h3.1v10.8C24.6,29.6,24.9,30,25.3,30z M26.1,14.6c0-1.3,1-2.3,2.3-2.3c1.3,0,2.3,1,2.3,2.3c0,1.3-1,2.3-2.3,2.3h-2.3V14.6z
		 M20,16.9h-2.3c-1.3,0-2.3-1-2.3-2.3c0-1.3,1-2.3,2.3-2.3c1.3,0,2.3,1,2.3,2.3V16.9z M8.4,4.1c0.1,0.1,0.3,0.2,0.5,0.2
		c0.2,0,0.4-0.1,0.6-0.3c0.3-0.3,0.2-0.8-0.1-1.1L6.5,0.5C6.1,0.2,5.7,0.2,5.4,0.6C5.1,0.9,5.2,1.4,5.5,1.6L8.4,4.1z M6,8.3L2.4,7
		C2,6.9,1.5,7.1,1.4,7.5c-0.1,0.4,0.1,0.8,0.5,1l3.6,1.3l0.3,0c0.3,0,0.6-0.2,0.7-0.5C6.6,8.9,6.4,8.5,6,8.3z M37.2,4.3
		c0.2,0,0.3-0.1,0.5-0.2l2.9-2.5c0.3-0.3,0.4-0.8,0.1-1.1c-0.3-0.3-0.8-0.4-1.1-0.1l-2.9,2.5c-0.3,0.3-0.4,0.8-0.1,1.1
		C36.7,4.2,36.9,4.3,37.2,4.3z M4.6,14.6H0.8c-0.4,0-0.8,0.3-0.8,0.8s0.3,0.8,0.8,0.8h3.8c0.4,0,0.8-0.3,0.8-0.8S5,14.6,4.6,14.6z
		 M44.7,7.5c-0.1-0.4-0.6-0.6-1-0.5l-3.6,1.3c-0.4,0.1-0.6,0.6-0.5,1c0.1,0.3,0.4,0.5,0.7,0.5l0.3,0l3.6-1.3
		C44.6,8.3,44.8,7.9,44.7,7.5z M23,0C14.6,0,7.7,6.9,7.7,15.4c0,6.5,2.5,11.3,8,15.2l0.1,0.1c0,0,0.9,0.5,1.1,1.8
		c-0.9,0.3-1.5,1.2-1.5,2.1c0,0.6,0.2,1.1,0.6,1.5c-0.4,0.4-0.6,0.9-0.6,1.5s0.2,1.1,0.6,1.5c-0.4,0.4-0.6,0.9-0.6,1.5
		c0,1.3,1,2.3,2.3,2.3c0.4,0,0.8-0.3,0.8-0.8s-0.3-0.8-0.8-0.8c-0.4,0-0.8-0.3-0.8-0.8s0.3-0.8,0.8-0.8h7.7c0.4,0,0.8-0.3,0.8-0.8
		s-0.3-0.8-0.8-0.8h-7.7c-0.4,0-0.8-0.3-0.8-0.8c0-0.4,0.3-0.8,0.8-0.8h7.7c0.4,0,0.8-0.3,0.8-0.8s-0.3-0.8-0.8-0.8h-7.7
		c-0.4,0-0.8-0.3-0.8-0.8s0.3-0.8,0.8-0.8h7.7c0.4,0,0.8-0.3,0.8-0.8s-0.3-0.8-0.8-0.8h-7c-0.3-1.9-1.5-2.8-1.8-3
		c-5.1-3.6-7.3-7.9-7.3-13.9C9.2,7.7,15.4,1.5,23,1.5s13.8,6.2,13.8,13.8c0,6-2.3,10.3-7.3,13.9c-0.4,0.2-1.9,1.2-1.9,3.7
		c0,0.4,0.3,0.8,0.8,0.8c0.4,0,0.8,0.3,0.8,0.8s-0.3,0.8-0.8,0.8c-0.4,0-0.8,0.3-0.8,0.8s0.3,0.8,0.8,0.8c0.4,0,0.8,0.3,0.8,0.8
		c0,0.4-0.3,0.8-0.8,0.8c-0.4,0-0.8,0.3-0.8,0.8s0.3,0.8,0.8,0.8c0.4,0,0.8,0.3,0.8,0.8c0,0.4-0.3,0.8-0.8,0.8h-7.7
		c-0.4,0-0.8,0.3-0.8,0.8v1.5c0,1.3,1,2.3,2.3,2.3h1.5c1.3,0,2.3-1,2.3-2.3V43h2.3c1.3,0,2.3-1,2.3-2.3c0-0.6-0.2-1.1-0.6-1.5
		c0.4-0.4,0.6-0.9,0.6-1.5s-0.2-1.1-0.6-1.5c0.4-0.4,0.6-0.9,0.6-1.5c0-1-0.6-1.8-1.5-2.1c0.2-1.3,1-1.8,1.1-1.8l0.1-0.1
		c5.5-3.9,8-8.7,8-15.2C38.4,6.9,31.5,0,23,0z M24.6,43.8c0,0.4-0.3,0.8-0.8,0.8h-1.5c-0.4,0-0.8-0.3-0.8-0.8V43h3.1V43.8z
		 M45.3,14.6h-3.8c-0.4,0-0.8,0.3-0.8,0.8s0.3,0.8,0.8,0.8h3.8c0.4,0,0.8-0.3,0.8-0.8S45.7,14.6,45.3,14.6z"/>
</g>
</svg>
