<?xml version="1.0" encoding="utf-8"?>
<!-- Generator: Adobe Illustrator 21.0.0, SVG Export Plug-In . SVG Version: 6.00 Build 0)  -->
<svg version="1.1" id="Calque_1" xmlns="http://www.w3.org/2000/svg" xmlns:xlink="http://www.w3.org/1999/xlink" x="0px" y="0px"
	 viewBox="0 0 24.9 24.8" style="enable-background:new 0 0 24.9 24.8;" xml:space="preserve">
<style type="text/css">
	.st0{fill:#FFFFFF;}
</style>
<g>
	<path class="st0" d="M6.4,15.1c-0.1,0.1-0.1,0.2-0.2,0.3c-1.7,1.7-3.3,3.3-5,5c-0.5,0.5-1,1-1.2,1.8v0.8L0.1,23
		c0.2,0.9,0.8,1.5,1.7,1.7l0.2,0.1h0.8c0.7-0.2,1.3-0.7,1.8-1.2c1.7-1.7,3.3-3.3,5-5c0.1-0.1,0.2-0.1,0.3-0.2
		C8.4,17.6,7.3,16.5,6.4,15.1z M15.6,0c-5.2,0-9.3,4.2-9.3,9.3c0,5.1,4.2,9.3,9.4,9.3c5.2,0,9.3-4.2,9.3-9.3C24.9,4.2,20.7,0,15.6,0
		z M15.6,16.3c-3.8,0-7-3.1-7-7c0-3.8,3.2-7,7-7c3.8,0,7,3.1,7,7C22.6,13.1,19.4,16.3,15.6,16.3z M15.6,3.9v1.5c1,0,2,0.4,2.7,1.1
		c0.8,0.7,1.1,1.7,1.2,2.7H21C21.1,6.4,18.6,3.8,15.6,3.9z"/>
</g>
</svg>
